<svg xmlns="http://www.w3.org/2000/svg" viewBox="0 0 900 450"><defs>
  <linearGradient id="bg" x1="0" y1="0" x2="1" y2="1">
    <stop offset="0" stop-color="#060a18"/>
    <stop offset="0.55" stop-color="#0b1030"/>
    <stop offset="1" stop-color="#120e2e"/>
  </linearGradient>
  <radialGradient id="neb1" cx="24%" cy="32%" r="45%">
    <stop offset="0" stop-color="#00c4b6" stop-opacity="0.20"/>
    <stop offset="1" stop-color="#00c4b6" stop-opacity="0"/>
  </radialGradient>
  <radialGradient id="neb2" cx="78%" cy="62%" r="50%">
    <stop offset="0" stop-color="#7c5cff" stop-opacity="0.26"/>
    <stop offset="1" stop-color="#7c5cff" stop-opacity="0"/>
  </radialGradient>
  <radialGradient id="neb3" cx="55%" cy="15%" r="40%">
    <stop offset="0" stop-color="#ff7ac6" stop-opacity="0.10"/>
    <stop offset="1" stop-color="#ff7ac6" stop-opacity="0"/>
  </radialGradient>
  <linearGradient id="mw" x1="0" y1="0" x2="1" y2="0.35">
    <stop offset="0" stop-color="#dfe9ff" stop-opacity="0"/>
    <stop offset="0.5" stop-color="#dfe9ff" stop-opacity="0.10"/>
    <stop offset="1" stop-color="#dfe9ff" stop-opacity="0"/>
  </linearGradient>
  <linearGradient id="shootG" x1="0" y1="0" x2="1" y2="0">
    <stop offset="0" stop-color="#ffffff" stop-opacity="0"/>
    <stop offset="1" stop-color="#ffffff" stop-opacity="0.9"/>
  </linearGradient>
  <radialGradient id="moonG" cx="50%" cy="50%" r="50%">
    <stop offset="0" stop-color="#dfe6ff" stop-opacity="0.30"/>
    <stop offset="1" stop-color="#dfe6ff" stop-opacity="0"/>
  </radialGradient>
</defs>
  <rect width="900" height="450" fill="url(#bg)"/>
  <ellipse cx="450" cy="230" rx="560" ry="120" fill="url(#mw)" transform="rotate(-18 450 230)"/>
  <rect width="900" height="450" fill="url(#neb1)"/>
  <rect width="900" height="450" fill="url(#neb2)"/>
  <rect width="900" height="450" fill="url(#neb3)"/>
  <circle cx="627.9" cy="177.0" r="0.58" fill="#e8f0ff" opacity="0.30"/><circle cx="884.3" cy="127.9" r="0.88" fill="#e8f0ff" opacity="0.13"/><circle cx="239.5" cy="281.2" r="0.59" fill="#e8f0ff" opacity="0.42"/><circle cx="268.1" cy="318.5" r="0.58" fill="#e8f0ff" opacity="0.15"/><circle cx="318.4" cy="260.9" r="0.55" fill="#e8f0ff" opacity="0.19"/><circle cx="796.8" cy="151.3" r="0.49" fill="#e8f0ff" opacity="0.31"/><circle cx="225.7" cy="281.2" r="0.48" fill="#e8f0ff" opacity="0.38"/><circle cx="799.7" cy="120.0" r="0.53" fill="#e8f0ff" opacity="0.12"/><circle cx="317.5" cy="237.7" r="0.86" fill="#e8f0ff" opacity="0.12"/><circle cx="662.6" cy="133.3" r="0.87" fill="#e8f0ff" opacity="0.13"/><circle cx="649.9" cy="194.8" r="0.79" fill="#e8f0ff" opacity="0.34"/><circle cx="313.8" cy="246.2" r="0.65" fill="#e8f0ff" opacity="0.45"/><circle cx="173.5" cy="316.6" r="0.85" fill="#e8f0ff" opacity="0.19"/><circle cx="82.5" cy="366.3" r="0.65" fill="#e8f0ff" opacity="0.15"/><circle cx="291.3" cy="313.4" r="0.64" fill="#e8f0ff" opacity="0.43"/><circle cx="409.8" cy="254.2" r="0.86" fill="#e8f0ff" opacity="0.43"/><circle cx="881.7" cy="108.8" r="0.43" fill="#e8f0ff" opacity="0.37"/><circle cx="712.8" cy="155.5" r="0.76" fill="#e8f0ff" opacity="0.15"/><circle cx="750.3" cy="128.0" r="0.73" fill="#e8f0ff" opacity="0.12"/><circle cx="847.3" cy="113.7" r="0.61" fill="#e8f0ff" opacity="0.13"/><circle cx="331.7" cy="245.8" r="0.62" fill="#e8f0ff" opacity="0.12"/><circle cx="720.9" cy="122.2" r="0.41" fill="#e8f0ff" opacity="0.31"/><circle cx="155.3" cy="302.5" r="0.55" fill="#e8f0ff" opacity="0.16"/><circle cx="873.2" cy="115.7" r="0.71" fill="#e8f0ff" opacity="0.41"/><circle cx="748.6" cy="98.1" r="0.75" fill="#e8f0ff" opacity="0.43"/><circle cx="530.6" cy="220.4" r="0.41" fill="#e8f0ff" opacity="0.26"/><circle cx="839.5" cy="78.5" r="0.61" fill="#e8f0ff" opacity="0.35"/><circle cx="14.3" cy="365.2" r="0.51" fill="#e8f0ff" opacity="0.42"/><circle cx="818.9" cy="115.4" r="0.78" fill="#e8f0ff" opacity="0.24"/><circle cx="302.4" cy="288.3" r="0.57" fill="#e8f0ff" opacity="0.22"/><circle cx="824.1" cy="138.8" r="0.52" fill="#e8f0ff" opacity="0.23"/><circle cx="135.4" cy="342.6" r="0.54" fill="#e8f0ff" opacity="0.15"/><circle cx="219.8" cy="320.2" r="0.73" fill="#e8f0ff" opacity="0.41"/><circle cx="608.2" cy="211.4" r="0.61" fill="#e8f0ff" opacity="0.37"/><circle cx="424.2" cy="217.4" r="0.43" fill="#e8f0ff" opacity="0.36"/><circle cx="819.1" cy="132.1" r="0.69" fill="#e8f0ff" opacity="0.41"/><circle cx="150.5" cy="329.1" r="0.44" fill="#e8f0ff" opacity="0.14"/><circle cx="6.0" cy="360.3" r="0.55" fill="#e8f0ff" opacity="0.19"/><circle cx="856.6" cy="96.7" r="0.53" fill="#e8f0ff" opacity="0.38"/><circle cx="167.5" cy="298.3" r="0.60" fill="#e8f0ff" opacity="0.32"/><circle cx="619.3" cy="165.4" r="0.55" fill="#e8f0ff" opacity="0.15"/><circle cx="806.8" cy="88.2" r="0.67" fill="#e8f0ff" opacity="0.40"/><circle cx="336.5" cy="270.6" r="0.75" fill="#e8f0ff" opacity="0.30"/><circle cx="317.3" cy="289.3" r="0.83" fill="#e8f0ff" opacity="0.21"/><circle cx="803.2" cy="151.6" r="0.64" fill="#e8f0ff" opacity="0.42"/>
  <circle cx="230.9" cy="415.6" r="0.97" fill="#ffffff" opacity="0.62"/><circle cx="49.2" cy="57.6" r="0.43" fill="#ffffff" opacity="0.37"/><circle cx="445.1" cy="159.8" r="0.55" fill="#ffffff" opacity="0.60"/><circle cx="439.6" cy="333.5" r="0.81" fill="#ffffff" opacity="0.88"/><circle cx="226.8" cy="319.6" r="0.48" fill="#ffffff" opacity="0.75"/><circle cx="448.9" cy="268.1" r="0.54" fill="#ffffff" opacity="0.76"/><circle cx="4.0" cy="80.4" r="1.07" fill="#ffffff" opacity="0.71"/><circle cx="72.2" cy="249.3" r="0.73" fill="#ffffff" opacity="0.84"/><circle cx="861.7" cy="290.5" r="0.41" fill="#ffffff" opacity="0.67"/><circle cx="294.1" cy="424.3" r="0.93" fill="#ffffff" opacity="0.43"/><circle cx="636.6" cy="109.7" r="1.04" fill="#ffffff" opacity="0.83"/><circle cx="45.0" cy="371.7" r="1.08" fill="#ffffff" opacity="0.59"/><circle cx="252.0" cy="59.5" r="1.15" fill="#ffffff" opacity="0.40"/><circle cx="866.2" cy="4.0" r="0.97" fill="#ffffff" opacity="0.76"/><circle cx="255.3" cy="404.4" r="0.82" fill="#ffffff" opacity="0.50"/><circle cx="26.1" cy="137.7" r="1.01" fill="#ffffff" opacity="0.64"/><circle cx="416.5" cy="349.5" r="0.71" fill="#ffffff" opacity="0.69"/><circle cx="595.8" cy="61.5" r="0.93" fill="#ffffff" opacity="0.39"/><circle cx="134.8" cy="36.2" r="0.98" fill="#ffffff" opacity="0.46"/><circle cx="2.8" cy="52.4" r="0.86" fill="#ffffff" opacity="0.30"/><circle cx="686.1" cy="151.5" r="0.48" fill="#ffffff" opacity="0.57"/><circle cx="873.6" cy="439.4" r="0.82" fill="#ffffff" opacity="0.41"/><circle cx="348.3" cy="191.3" r="1.24" fill="#ffffff" opacity="0.72"/><circle cx="875.2" cy="287.7" r="1.26" fill="#ffffff" opacity="0.41"/><circle cx="809.7" cy="299.6" r="0.54" fill="#ffffff" opacity="0.28"/><circle cx="869.8" cy="423.4" r="0.52" fill="#ffffff" opacity="0.45"/><circle cx="452.1" cy="381.6" r="0.92" fill="#ffffff" opacity="0.36"/><circle cx="686.3" cy="292.0" r="1.03" fill="#ffffff" opacity="0.81"/><circle cx="717.9" cy="392.0" r="1.22" fill="#ffffff" opacity="0.38"/><circle cx="534.7" cy="338.1" r="0.98" fill="#ffffff" opacity="0.27"/><circle cx="412.8" cy="369.7" r="0.80" fill="#ffffff" opacity="0.84"/><circle cx="616.2" cy="125.8" r="0.88" fill="#ffffff" opacity="0.36"/><circle cx="568.3" cy="407.7" r="0.89" fill="#ffffff" opacity="0.86"/><circle cx="810.6" cy="97.0" r="0.44" fill="#ffffff" opacity="0.63"/><circle cx="275.8" cy="37.4" r="0.44" fill="#ffffff" opacity="0.33"/><circle cx="509.2" cy="357.8" r="0.83" fill="#ffffff" opacity="0.25"/><circle cx="370.4" cy="446.0" r="0.62" fill="#ffffff" opacity="0.82"/><circle cx="892.4" cy="413.6" r="0.52" fill="#ffffff" opacity="0.26"/><circle cx="748.2" cy="413.4" r="0.82" fill="#ffffff" opacity="0.53"/><circle cx="381.1" cy="43.9" r="1.05" fill="#ffffff" opacity="0.29"/><circle cx="751.8" cy="14.5" r="1.17" fill="#ffffff" opacity="0.41"/><circle cx="417.1" cy="224.9" r="0.45" fill="#ffffff" opacity="0.85"/><circle cx="891.1" cy="279.6" r="0.47" fill="#ffffff" opacity="0.61"/><circle cx="176.8" cy="80.5" r="1.11" fill="#ffffff" opacity="0.65"/><circle cx="482.3" cy="183.3" r="0.60" fill="#ffffff" opacity="0.36"/><circle cx="448.5" cy="447.6" r="1.13" fill="#ffffff" opacity="0.42"/><circle cx="13.8" cy="395.0" r="1.15" fill="#ffffff" opacity="0.34"/><circle cx="23.8" cy="381.2" r="0.92" fill="#ffffff" opacity="0.62"/><circle cx="241.6" cy="17.2" r="0.90" fill="#ffffff" opacity="0.63"/><circle cx="381.9" cy="131.9" r="1.19" fill="#ffffff" opacity="0.53"/><circle cx="833.2" cy="359.2" r="0.58" fill="#ffffff" opacity="0.53"/><circle cx="538.8" cy="210.8" r="0.55" fill="#ffffff" opacity="0.32"/><circle cx="433.7" cy="49.0" r="0.99" fill="#ffffff" opacity="0.61"/><circle cx="640.5" cy="182.7" r="0.79" fill="#ffffff" opacity="0.73"/><circle cx="837.0" cy="45.3" r="1.19" fill="#ffffff" opacity="0.38"/><circle cx="454.1" cy="377.5" r="0.78" fill="#ffffff" opacity="0.27"/><circle cx="433.0" cy="301.5" r="1.21" fill="#ffffff" opacity="0.26"/><circle cx="823.1" cy="400.5" r="0.59" fill="#ffffff" opacity="0.45"/><circle cx="5.6" cy="65.9" r="0.49" fill="#ffffff" opacity="0.52"/><circle cx="28.5" cy="269.6" r="0.72" fill="#ffffff" opacity="0.76"/><circle cx="836.4" cy="214.8" r="1.08" fill="#ffffff" opacity="0.39"/><circle cx="382.5" cy="152.8" r="0.43" fill="#ffffff" opacity="0.28"/><circle cx="754.3" cy="77.6" r="0.50" fill="#ffffff" opacity="0.45"/><circle cx="285.3" cy="280.2" r="1.09" fill="#ffffff" opacity="0.73"/><circle cx="894.1" cy="32.6" r="0.75" fill="#ffffff" opacity="0.44"/><circle cx="325.4" cy="223.0" r="0.70" fill="#ffffff" opacity="0.43"/><circle cx="200.8" cy="191.5" r="0.59" fill="#ffffff" opacity="0.58"/><circle cx="731.8" cy="31.1" r="0.61" fill="#ffffff" opacity="0.34"/><circle cx="737.5" cy="46.0" r="0.49" fill="#ffffff" opacity="0.67"/><circle cx="183.2" cy="250.7" r="1.07" fill="#ffffff" opacity="0.89"/><circle cx="724.5" cy="95.6" r="0.62" fill="#ffffff" opacity="0.34"/><circle cx="541.0" cy="229.8" r="0.42" fill="#ffffff" opacity="0.40"/><circle cx="715.2" cy="357.6" r="1.27" fill="#ffffff" opacity="0.52"/><circle cx="634.8" cy="234.7" r="1.12" fill="#ffffff" opacity="0.58"/><circle cx="478.0" cy="213.4" r="1.23" fill="#ffffff" opacity="0.75"/><circle cx="394.3" cy="208.8" r="1.20" fill="#ffffff" opacity="0.84"/><circle cx="301.5" cy="189.9" r="0.92" fill="#ffffff" opacity="0.55"/><circle cx="56.1" cy="237.1" r="0.70" fill="#ffffff" opacity="0.82"/><circle cx="895.2" cy="237.8" r="0.68" fill="#ffffff" opacity="0.32"/><circle cx="75.3" cy="17.7" r="1.30" fill="#ffffff" opacity="0.29"/><circle cx="812.0" cy="162.9" r="0.58" fill="#ffffff" opacity="0.72"/><circle cx="420.6" cy="301.6" r="0.77" fill="#ffffff" opacity="0.75"/><circle cx="75.5" cy="364.3" r="1.10" fill="#ffffff" opacity="0.67"/><circle cx="337.9" cy="14.3" r="1.11" fill="#ffffff" opacity="0.46"/><circle cx="50.1" cy="81.1" r="0.61" fill="#ffffff" opacity="0.27"/><circle cx="405.8" cy="20.2" r="0.46" fill="#ffffff" opacity="0.33"/><circle cx="146.4" cy="445.5" r="0.95" fill="#ffffff" opacity="0.33"/><circle cx="631.4" cy="84.8" r="0.52" fill="#ffffff" opacity="0.64"/><circle cx="664.8" cy="394.3" r="0.61" fill="#ffffff" opacity="0.42"/><circle cx="411.5" cy="56.9" r="0.74" fill="#ffffff" opacity="0.41"/><circle cx="96.7" cy="442.3" r="0.66" fill="#ffffff" opacity="0.62"/><circle cx="423.0" cy="365.0" r="0.42" fill="#ffffff" opacity="0.80"/><circle cx="603.3" cy="330.2" r="0.66" fill="#ffffff" opacity="0.50"/><circle cx="207.4" cy="68.2" r="0.84" fill="#ffffff" opacity="0.45"/><circle cx="189.3" cy="386.9" r="1.29" fill="#ffffff" opacity="0.44"/><circle cx="85.7" cy="194.8" r="1.00" fill="#ffffff" opacity="0.81"/><circle cx="742.4" cy="349.6" r="0.86" fill="#ffffff" opacity="0.64"/><circle cx="559.2" cy="430.9" r="0.70" fill="#ffffff" opacity="0.34"/><circle cx="405.9" cy="449.7" r="1.05" fill="#ffffff" opacity="0.75"/><circle cx="639.1" cy="219.0" r="0.86" fill="#ffffff" opacity="0.29"/><circle cx="554.1" cy="417.5" r="1.06" fill="#ffffff" opacity="0.55"/><circle cx="91.8" cy="441.8" r="0.84" fill="#ffffff" opacity="0.78"/><circle cx="564.5" cy="103.8" r="0.47" fill="#ffffff" opacity="0.79"/><circle cx="386.5" cy="86.9" r="0.46" fill="#ffffff" opacity="0.48"/><circle cx="630.3" cy="159.3" r="0.48" fill="#ffffff" opacity="0.82"/><circle cx="95.4" cy="244.6" r="0.95" fill="#ffffff" opacity="0.35"/><circle cx="474.3" cy="290.2" r="0.82" fill="#ffffff" opacity="0.44"/><circle cx="791.4" cy="163.3" r="0.50" fill="#ffffff" opacity="0.66"/><circle cx="771.9" cy="380.5" r="1.26" fill="#ffffff" opacity="0.71"/><circle cx="676.6" cy="355.1" r="0.48" fill="#ffffff" opacity="0.63"/>
  <g opacity="0.95"><circle cx="120" cy="90" r="1.9" fill="#eafcff"/><circle cx="120" cy="90" r="5.3" fill="#bfefff" opacity="0.15"/><rect x="113" y="89.5" width="14" height="1" fill="#ffffff" opacity="0.75"/><rect x="119.5" y="83" width="1" height="14" fill="#ffffff" opacity="0.75"/></g><g opacity="0.95"><circle cx="300" cy="60" r="2.0" fill="#eafcff"/><circle cx="300" cy="60" r="5.6" fill="#bfefff" opacity="0.15"/><rect x="293" y="59.5" width="14" height="1" fill="#ffffff" opacity="0.75"/><rect x="299.5" y="53" width="1" height="14" fill="#ffffff" opacity="0.75"/></g><g opacity="0.95"><circle cx="230" cy="190" r="2.1" fill="#eafcff"/><circle cx="230" cy="190" r="5.9" fill="#bfefff" opacity="0.15"/><rect x="223" y="189.5" width="14" height="1" fill="#ffffff" opacity="0.75"/><rect x="229.5" y="183" width="1" height="14" fill="#ffffff" opacity="0.75"/></g><g opacity="0.95"><circle cx="420" cy="120" r="1.9" fill="#eafcff"/><circle cx="420" cy="120" r="5.3" fill="#bfefff" opacity="0.15"/><rect x="413" y="119.5" width="14" height="1" fill="#ffffff" opacity="0.75"/><rect x="419.5" y="113" width="1" height="14" fill="#ffffff" opacity="0.75"/></g><g opacity="0.95"><circle cx="520" cy="200" r="2.4" fill="#eafcff"/><circle cx="520" cy="200" r="6.7" fill="#bfefff" opacity="0.15"/><rect x="513" y="199.5" width="14" height="1" fill="#ffffff" opacity="0.75"/><rect x="519.5" y="193" width="1" height="14" fill="#ffffff" opacity="0.75"/></g><g opacity="0.95"><circle cx="640" cy="380" r="1.9" fill="#eafcff"/><circle cx="640" cy="380" r="5.3" fill="#bfefff" opacity="0.15"/><rect x="633" y="379.5" width="14" height="1" fill="#ffffff" opacity="0.75"/><rect x="639.5" y="373" width="1" height="14" fill="#ffffff" opacity="0.75"/></g><g opacity="0.95"><circle cx="150" cy="340" r="2.5" fill="#eafcff"/><circle cx="150" cy="340" r="7.0" fill="#bfefff" opacity="0.15"/><rect x="143" y="339.5" width="14" height="1" fill="#ffffff" opacity="0.75"/><rect x="149.5" y="333" width="1" height="14" fill="#ffffff" opacity="0.75"/></g><g opacity="0.95"><circle cx="820" cy="300" r="2.0" fill="#eafcff"/><circle cx="820" cy="300" r="5.6" fill="#bfefff" opacity="0.15"/><rect x="813" y="299.5" width="14" height="1" fill="#ffffff" opacity="0.75"/><rect x="819.5" y="293" width="1" height="14" fill="#ffffff" opacity="0.75"/></g><g opacity="0.95"><circle cx="60" cy="220" r="2.3" fill="#eafcff"/><circle cx="60" cy="220" r="6.4" fill="#bfefff" opacity="0.15"/><rect x="53" y="219.5" width="14" height="1" fill="#ffffff" opacity="0.75"/><rect x="59.5" y="213" width="1" height="14" fill="#ffffff" opacity="0.75"/></g><g opacity="0.95"><circle cx="860" cy="140" r="2.1" fill="#eafcff"/><circle cx="860" cy="140" r="5.9" fill="#bfefff" opacity="0.15"/><rect x="853" y="139.5" width="14" height="1" fill="#ffffff" opacity="0.75"/><rect x="859.5" y="133" width="1" height="14" fill="#ffffff" opacity="0.75"/></g>
  <g>
    <polyline points="70,382 118,352 168,378 214,344 262,368" fill="none" stroke="#9fd8ff" stroke-opacity="0.38" stroke-width="1.2"/>
    <g fill="#cfe8ff" opacity="0.85">
      <circle cx="70" cy="382" r="1.8"/><circle cx="118" cy="352" r="1.6"/><circle cx="168" cy="378" r="1.8"/><circle cx="214" cy="344" r="1.6"/><circle cx="262" cy="368" r="1.7"/>
    </g>
  </g>
  <g transform="translate(762,88)">
    <ellipse rx="47" ry="13" fill="none" stroke="#8fb7ff" stroke-opacity="0.5" stroke-width="2" transform="rotate(-16)"/>
    <circle r="22" fill="#141d44"/>
    <circle r="22" fill="none" stroke="#9cc2ff" stroke-opacity="0.55" stroke-width="1.5"/>
    <circle cx="-8" cy="-8" r="7" fill="#223066" opacity="0.9"/>
    <path d="M 47 0 A 47 13 0 0 1 -47 0" fill="none" stroke="#8fb7ff" stroke-opacity="0.5" stroke-width="2" transform="rotate(-16)"/>
  </g>
  <line x1="150" y1="60" x2="286" y2="110" stroke="url(#shootG)" stroke-width="2" stroke-linecap="round"/>
  <circle cx="286" cy="110" r="1.8" fill="#ffffff"/>
  <circle cx="286" cy="110" r="5" fill="#cfeaff" opacity="0.25"/>
</svg>